<svg width="176" height="52" fill="none" xmlns="http://www.w3.org/2000/svg"><path d="M7.765 23.383l2.646-1.31 4.181-6.281 1.28-.524 1.365 6.37-1.792.261-1.365-2.617-1.024 4.1h4.523l4.693 1.222 1.877-1.221 3.158 3.315 1.365-6.107 2.219 2.268 1.365-1.92 2.219-.61 3.242-3.054.512-1.483 2.646.436 1.11 1.483L40.02 21.9l4.864-2.53v-1.221l1.878-.437 2.048 2.094 2.048-2.53V15.53l3.328-2.355 1.365-2.007h2.133l3.755-7.765L64.683 0l1.194 1.92L64 4.361l.683 1.57 1.792.35 1.45 6.456v5.41l2.56 3.577 1.28 4.973-4.437-2.88-1.963-8.288-1.194.262-.17 5.584-3.244 5.322-.938 8.114 2.218.524.94-1.135 2.132 2.443 1.622 7.33-.17 4.71h-2.049l-.768-6.63-1.45 2.006-3.158-.698-2.56-2.18-2.901 1.046.17 4.712-2.304.61-3.413 2.618-4.096-.524-1.621-.96-2.56.437.853 1.047-2.048 1.221-1.621-.785L33.963 52l-4.694-2.356-1.792-4.188-1.536.175-1.792-1.483-.085-1.135-5.717-.61-.939 3.14-3.584-1.657-1.792-3.054h-3.84l-.427 4.886-2.218.698-1.11 4.45-.853-.785L0 40.745l4.267-2.094-.683-4.1-.683-4.189 1.878-2.704L4.18 26l2.56-2.792 1.024.175zm56.747 10.295l3.925 5.933 1.28-.524-1.62-2.443-3.585-3.839v.873zm-40.107-12.04v-1.745l2.987-2.182 2.56-1.308h-2.987l-2.645 1.57-1.621 1.483v2.182h1.706zM89.831 41h4.724v-5.18h2.616c3.967 0 6.626-2.344 6.626-6.103 0-3.716-2.591-6.17-6.456-6.17h-7.51V41zm4.724-8.863V27.33h1.665c1.656 0 2.65.886 2.65 2.386 0 1.492-.994 2.42-2.65 2.42h-1.665zm17.049 9.103c4.247 0 6.762-2.728 6.762-6.75 0-4.024-2.515-6.75-6.762-6.75-4.248 0-6.762 2.726-6.762 6.75 0 4.022 2.514 6.75 6.762 6.75zm.034-3.478c-1.257 0-2.005-1.253-2.005-3.307 0-2.054.748-3.307 2.005-3.307 1.189 0 1.937 1.253 1.937 3.307 0 2.054-.748 3.307-1.937 3.307zm14.917 3.478c3.865 0 6.235-2.225 6.286-5.694h-4.349c-.102 1.372-.841 2.114-1.869 2.114-1.232 0-2.039-1.057-2.039-3.205s.807-3.205 2.039-3.205c1.036 0 1.742.742 1.869 2.114h4.349c-.025-3.409-2.446-5.625-6.286-5.625-4.247 0-6.762 2.727-6.762 6.75s2.515 6.75 6.762 6.75zm14.507 0c3.866 0 6.236-2.225 6.287-5.694h-4.35c-.102 1.372-.841 2.114-1.869 2.114-1.231 0-2.038-1.057-2.038-3.205s.807-3.205 2.038-3.205c1.037 0 1.742.742 1.869 2.114h4.35c-.026-3.409-2.447-5.625-6.287-5.625-4.247 0-6.762 2.727-6.762 6.75s2.515 6.75 6.762 6.75zM153.701 35v-7.09h-4.418V41h4.418l3.636-7.125V41h4.417V27.91h-4.417L153.701 35zm17.95 6H176V27.91h-6.116c-3.764 0-6.142 1.909-6.117 4.568-.017 1.491.875 2.727 2.438 3.46L163.631 41h4.316l2.2-4.33h1.504V41zm0-7.159h-1.665c-1.249 0-1.827-.613-1.801-1.193-.026-.545.518-1.227 1.699-1.227h1.767v2.42z" fill="#fff"/></svg>